<svg xmlns="http://www.w3.org/2000/svg" width="48" height="48" viewBox="0 0 48 48"><g fill="none" fill-rule="evenodd"><path fill="#00000A" fill-opacity=".15" d="M37.09 15.19c.256.267.402.62.41.99v17.96c0 .85-.69 1.54-1.54 1.54-.376-.011-.733-.165-1-.43s-.42-.624-.43-1v-18a1.5 1.5 0 012.56-1.06zm-24 0c.256.267.402.62.41.99v17.96c0 .85-.69 1.54-1.54 1.54-.376-.011-.733-.165-1-.43s-.42-.624-.43-1v-18a1.5 1.5 0 012.56-1.06zM40 18.18a1.5 1.5 0 011.5 1.5v11a1.5 1.5 0 01-3 0v-11a1.5 1.5 0 011.5-1.5zm-32.04.04a1.53 1.53 0 011.54 1.49v10.97a1.5 1.5 0 01-3 0v-11c-.003-.388.15-.761.425-1.035a1.445 1.445 0 011.035-.425z" opacity=".65"/><path fill="#000" d="M34.23 14.41a2.55 2.55 0 013.54 0c.47.47.732 1.106.73 1.77v1.5a2.5 2.5 0 014 2v3h.5a2.49 2.49 0 012.5 2.5 2.51 2.51 0 01-2.5 2.5h-.5v3a2.523 2.523 0 01-.73 1.76 2.591 2.591 0 01-3.27.23v1.47a2.54 2.54 0 01-2.54 2.54 2.48 2.48 0 01-2.46-2.47v-6.53h-19v6.46a2.54 2.54 0 01-2.54 2.54 2.48 2.48 0 01-2.46-2.47v-1.54c-.43.33-.958.51-1.5.51a2.51 2.51 0 01-2.5-2.5v-3H5a2.51 2.51 0 01-2.5-2.5A2.492 2.492 0 015 22.64h.5v-3a2.45 2.45 0 01.72-1.74 2.6 2.6 0 013.28-.2v-1.52a2.49 2.49 0 01.73-1.77 2.55 2.55 0 013.54 0c.47.47.732 1.106.73 1.77v6.5h19v-6.5a2.49 2.49 0 01.73-1.77zm-21.14.78a1.5 1.5 0 00-2.56 1.06v18c.01.376.163.735.43 1s.624.419 1 .43c.85 0 1.54-.69 1.54-1.54V16.18a1.476 1.476 0 00-.41-.99zm24 0a1.5 1.5 0 00-2.56 1.06v18c.01.376.163.735.43 1s.624.419 1 .43c.85 0 1.54-.69 1.54-1.54V16.18a1.476 1.476 0 00-.41-.99zM40 18.18a1.5 1.5 0 00-1.5 1.5v11a1.5 1.5 0 003 0v-11a1.5 1.5 0 00-1.5-1.5zm-32.04.04a1.445 1.445 0 00-1.035.425A1.445 1.445 0 006.5 19.68v11a1.5 1.5 0 003 0V19.71a1.53 1.53 0 00-1.54-1.49zM5.5 23.68H5a1.52 1.52 0 00-1.06.44A1.5 1.5 0 005 26.68h.5v-3zm28 0h-19v3h19v-3zm9.5 0h-.5v3h.5a1.52 1.52 0 001.06-.44 1.52 1.52 0 00.44-1.06 1.481 1.481 0 00-.44-1.06 1.52 1.52 0 00-1.06-.44zM18.82 10.15a.49.49 0 01.3.24l1.31 2.26a.51.51 0 01-.18.69.558.558 0 01-.25.06.5.5 0 01-.43-.25l-1.31-2.26a.51.51 0 01.18-.69.491.491 0 01.38-.05zm10.74.05a.51.51 0 01.18.69l-1.31 2.26a.5.5 0 01-.43.25.558.558 0 01-.25-.06.51.51 0 01-.18-.69l1.31-2.26a.49.49 0 01.68-.19zM24 7a.5.5 0 01.5.5v4.27a.5.5 0 01-1 0V7.5A.5.5 0 0124 7z"/></g></svg>