<svg xmlns="http://www.w3.org/2000/svg" xmlns:xlink="http://www.w3.org/1999/xlink" width="24" height="24" viewBox="0 0 24 24"><defs><symbol id="icon_group" viewBox="0 0 24 24"><path id="icon_group-a" fill-rule="evenodd" d="M12.004 5c.845 0 1.622.275 2.051.826.43.551.644 1.2.644 1.95v1.843c0 .339-.046.614-.137.826-.09.212-.373.66-.568.802v2.1c.312.128.68.312 1.102.552a53.608 53.608 0 012.292 1.377c.313.198.514.318.605.36.221.113.37.25.449.413.078.163.117.413.117.752 0 0 .489 2.199-6.555 2.199s-6.556-2.199-6.556-2.199c0-.339.04-.593.118-.762.078-.17.227-.325.448-.467.091-.042.296-.162.615-.36.318-.197.676-.416 1.073-.657.397-.24.806-.48 1.229-.72.423-.24.784-.43 1.083-.572v-2.016c-.195-.141-.509-.6-.6-.834a2.17 2.17 0 01-.137-.794V7.776c0-.777.215-1.434.644-1.97.43-.538 1.237-.806 2.083-.806zM5.829 6.976c.596 0 1.225.197 1.497.59.272.394.407.862.407 1.406v1.094c0 .243-.023.44-.07.59-.046.15-.214.49-.506.59v1.162c.16.071 1.05.544 1.248.644-.424.215-.894.476-1.41.783-.518.308-1.107.669-1.77 1.084 0 0-.569.475-.715.697-.145.222-.152.843-.152 1.243-1.595 0-2.292-.84-2.318-.868a.152.152 0 01-.04-.107v-.781c0-.244.046-.422.14-.537.092-.114.23-.372.619-.73.388-.36 1.917-1.364 1.917-1.364v-1.225c-.291-.1-.46-.44-.506-.591a2.053 2.053 0 01-.07-.59V8.972c0-.544.136-1.012.407-1.406.272-.393.712-.59 1.322-.59zm12.349 0c.609 0 1.05.197 1.321.59.272.394.407.862.407 1.406v1.094c0 .243-.023.44-.07.59-.046.15-.214.49-.506.59v1.162s1.438 1.082 1.856 1.427c.418.345.582.599.675.72.093.122.139.304.139.548v.787a.152.152 0 01-.04.108c-.026.028-.907.767-2.26.767 0-.4-.055-.9-.201-1.129a1.944 1.944 0 00-.636-.6s-.96-.566-1.53-.923a30.53 30.53 0 00-1.728-1.009c.198-.1 1.238-.696 1.238-.696v-1.161c-.292-.1-.46-.44-.507-.591a2.053 2.053 0 01-.07-.59V8.972c0-.544.136-1.012.408-1.406.272-.393.908-.59 1.504-.59z"/></symbol></defs><use xlink:href="#icon_group-a"/></svg>