<svg xmlns="http://www.w3.org/2000/svg" xmlns:xlink="http://www.w3.org/1999/xlink" width="24" height="24" viewBox="0 0 24 24"><defs><symbol id="icon_thumbs_up" viewBox="0 0 24 24"><path id="icon_thumbs_up-a" fill-rule="evenodd" d="M5.603 17.96v-5.703a.558.558 0 00-1.115 0v5.703a.558.558 0 001.115 0zM3 18.512v-6.807c0-.822.666-1.488 1.488-1.488h1.115c.822 0 1.488.666 1.488 1.488v6.807c0 .822-.666 1.488-1.488 1.488H4.488A1.488 1.488 0 013 18.512zm10.345-12.29a986.471 986.471 0 01-3.456 3.44c-.27.262-.492.442-.492 1.296v6.67c0 .606.312.89.892.89h5.876c.473 0 .913-.218 1.052-.548a403.966 403.966 0 001.879-4.288c.212-.514.416-.997.416-1.312v-.597c0-.56-.326-.889-.892-.889h-5.333a.744.744 0 01-.728-.896l.786-3.765zm.856 3.18h5.163c.9 0 1.636.734 1.636 1.63v1.63c0 .213-.04.408-.115.596l-2.47 5.747a1.625 1.625 0 01-1.506.995H9.545c-.9 0-1.636-.734-1.636-1.63v-8.153c0-.448.18-.856.483-1.15l4.86-4.85a.744.744 0 011.049-.003l.342.337c.22.22.36.53.36.864l-.025.261-.777 3.726z"/></symbol></defs><use fill-rule="evenodd" xlink:href="#icon_thumbs_up-a"/></svg>