<svg xmlns="http://www.w3.org/2000/svg" width="48" height="48" viewBox="0 0 48 48"><g fill="none" fill-rule="evenodd"><path fill="#00000A" fill-opacity=".15" d="M21 18.5c.398-.002.78.157 1.06.44.28.286.438.67.44 1.07v9.15a1.56 1.56 0 01-.83 1.29l-.74.42a2.001 2.001 0 00-1 1.74V41a.51.51 0 01-.5.5h-5.77a.51.51 0 01-.5-.5v-8.36a2 2 0 00-1.06-1.77l-.8-.43a1.49 1.49 0 01-.8-1.34v-9.11a1.57 1.57 0 011.58-1.49zm-4.64-12a4.51 4.51 0 014.5 4.5 4.5 4.5 0 11-4.5-4.5z" opacity=".65"/><path fill="#000" d="M38 41.5a.5.5 0 010 1h-9a.5.5 0 010-1h9zm-17-24a2.499 2.499 0 011.77.74c.468.474.73 1.114.73 1.78v9.14a2.538 2.538 0 01-1.33 2.16l-.73.42a1 1 0 00-.51.87V41a1.5 1.5 0 01-1.5 1.5h-5.75a1.5 1.5 0 01-1.5-1.5v-8.36a.999.999 0 00-.53-.89l-.8-.43A2.459 2.459 0 019.5 29.1v-9.11a2.581 2.581 0 012.58-2.49H21zm0 1h-8.92a1.57 1.57 0 00-1.58 1.49v9.11a1.49 1.49 0 00.8 1.34l.8.43a2 2 0 011.06 1.77V41a.51.51 0 00.5.5h5.77a.51.51 0 00.5-.5v-8.39a2.001 2.001 0 011-1.74l.74-.42a1.56 1.56 0 00.83-1.29v-9.15c-.002-.4-.16-.784-.44-1.07A1.481 1.481 0 0021 18.5zM37.5 37a.5.5 0 010 1H33a.5.5 0 010-1h4.5zm.5-4.5a.5.5 0 010 1h-9a.5.5 0 010-1h9zm-.01-4.5a.5.5 0 010 1H33.5a.5.5 0 010-1h4.49zm0-4.5a.5.5 0 010 1h-9a.5.5 0 010-1h9zm0-4.5a.5.5 0 010 1H33.5a.5.5 0 010-1h4.49zM16.36 5.5a5.5 5.5 0 015.5 5.5 5.511 5.511 0 01-5.5 5.5 5.5 5.5 0 110-11zm0 1a4.5 4.5 0 104.5 4.5 4.51 4.51 0 00-4.5-4.5zm21.62 8a.5.5 0 010 1h-9a.5.5 0 010-1h9zM38 10a.5.5 0 010 1h-4.5a.5.5 0 010-1H38zm-.03-4.5a.5.5 0 010 1h-9a.5.5 0 010-1h9z"/></g></svg>