<svg xmlns="http://www.w3.org/2000/svg" width="48" height="48" viewBox="0 0 48 48"><g fill="none" fill-rule="evenodd"><path fill="#00000A" fill-opacity=".15" d="M21 6a1.159 1.159 0 011.23 1.16v4.18l-.64 7.62a2.07 2.07 0 00-1-.08 2.37 2.37 0 00-1.93 2v6.84a.5.5 0 001 0V21a1.35 1.35 0 011.09-1.13 1.38 1.38 0 011.46 1.06v12.69a5.24 5.24 0 01-1.52 3.71A5.18 5.18 0 0117 38.88h-.15A8.562 8.562 0 0012 40.37l-1.75 1.26a1 1 0 01-1.31-.2l-4.71-6a1 1 0 01-.2-.71.999.999 0 01.36-.65l.16-.1 7.8-4a1.998 1.998 0 001-1.29l3.02-12.41c.08-.313.17-.623.27-.93l2.65-8.1C19.532 6.5 20.222 6 21 6zm5.87 0c.778 0 1.468.5 1.71 1.24l2.66 8.1c.1.31.19.62.26.93l3.08 12.34a1.92 1.92 0 001 1.29l7.8 4 .15.1a1 1 0 01.13 1.38l-4.71 6a1 1 0 01-1.31.2l-1.8-1.21A8.528 8.528 0 0031 38.88h-.08a5.17 5.17 0 01-3.69-1.55 5.24 5.24 0 01-1.52-3.71V20.93a1.37 1.37 0 011.44-1.05c.525.09.946.483 1.07 1v6.85a.5.5 0 001 0v-6.91a2.329 2.329 0 00-1.92-1.9 2.003 2.003 0 00-.95.08l-.64-7.62V7.16c0-.308.122-.603.34-.82.217-.218.512-.34.82-.34z" opacity=".65"/><path fill="#000" d="M21 5a2.171 2.171 0 012.2 2.16v4.22l-.69 8.14c.342.335.578.762.68 1.23v12.87A6.23 6.23 0 0117 39.88h-.12a7.608 7.608 0 00-4.29 1.31l-1.8 1.22a1.996 1.996 0 01-1.1.34c-.607 0-1.18-.276-1.56-.75l-4.71-6a2 2 0 01.33-2.76c.103-.09.213-.17.33-.24l7.8-4c.25-.133.431-.366.5-.64l3-12.41c.08-.34.18-.67.29-1l2.65-8.11A2.801 2.801 0 0121 5zm5.87 0a2.79 2.79 0 012.66 1.92L32.19 15c.11.33.2.66.29 1l3.05 12.41c.06.276.245.509.5.63l7.8 4 .32.2a2 2 0 01.33 2.76l-4.71 6a2 2 0 01-1.55.75 1.93 1.93 0 01-1.1-.34l-1.8-1.22A7.607 7.607 0 0031 39.88h-.12A6.2 6.2 0 0126.52 38a6.272 6.272 0 01-1.81-4.42v-12.7a.405.405 0 010-.11c.084-.4.267-.772.531-1.08l.139-.15-.68-8.1V7.16A2.158 2.158 0 0126.87 5zM21 6c-.778 0-1.468.5-1.71 1.24l-2.65 8.1c-.1.307-.19.617-.27.93l-3.02 12.41a1.998 1.998 0 01-1 1.29l-7.8 4-.16.1a.999.999 0 00-.36.65 1 1 0 00.2.71l4.71 6a1 1 0 001.31.2L12 40.37a8.562 8.562 0 014.85-1.49H17a5.18 5.18 0 003.69-1.55 5.24 5.24 0 001.52-3.71V20.93a1.38 1.38 0 00-1.46-1.06A1.35 1.35 0 0019.66 21v6.72a.5.5 0 01-1 0v-6.84a2.37 2.37 0 011.93-2 2.07 2.07 0 011 .08l.64-7.62V7.16A1.163 1.163 0 0021 6zm5.87 0c-.308 0-.603.122-.82.34-.218.217-.34.512-.34.82v4.22l.64 7.62c.306-.103.632-.13.95-.08.98.16 1.75.922 1.92 1.9v6.91a.5.5 0 01-1 0v-6.85a1.33 1.33 0 00-1.07-1 1.37 1.37 0 00-1.44 1.05v12.69a5.24 5.24 0 001.52 3.71 5.17 5.17 0 003.69 1.55H31a8.528 8.528 0 014.84 1.49l1.8 1.21a1 1 0 001.31-.2l4.71-6a1 1 0 00-.13-1.38l-.15-.1-7.8-4a1.92 1.92 0 01-1-1.29L31.5 16.27c-.07-.31-.16-.62-.26-.93l-2.66-8.1A1.799 1.799 0 0026.87 6z"/></g></svg>