<svg xmlns="http://www.w3.org/2000/svg" width="48" height="48" viewBox="0 0 48 48"><g fill="none" fill-rule="evenodd"><path fill="#00000A" fill-opacity=".15" d="M4.64 34.86a.431.431 0 01-.14-.32v-6.08c0-.122.05-.238.14-.32a.431.431 0 01.32-.14H17.5v7H4.96a.431.431 0 01-.32-.14z" opacity=".65"/><path fill="#000" d="M41.07 27c.377.007.736.161 1 .43.276.272.431.643.43 1.03v6.08a1.47 1.47 0 01-1.46 1.4H4.96a1.438 1.438 0 01-1-.43 1.438 1.438 0 01-.43-1v-6.08c.007-.377.161-.736.43-1a1.438 1.438 0 011-.43zm2.93.5a.5.5 0 01.5.5v7a.5.5 0 01-1 0v-7a.5.5 0 01.5-.5zm-26.5.5H4.96a.431.431 0 00-.32.14.431.431 0 00-.14.32v6.08c0 .122.05.238.14.32.082.09.198.14.32.14H17.5v-7zm23.54 0H18.5v7h22.54a.48.48 0 00.46-.46v-6.08a.48.48 0 00-.46-.46zM38.5 6a3 3 0 110 6H31a3.5 3.5 0 100 7h9a4.341 4.341 0 014.5 4.5.5.5 0 01-1 0A3.409 3.409 0 0040 20h-9a4.5 4.5 0 010-9h7.5a2 2 0 100-4H34a.5.5 0 010-1h4.5z"/></g></svg>