<svg xmlns="http://www.w3.org/2000/svg" width="56" height="56" viewBox="0 0 56 56"><g fill="none"><path fill="#0CAEB1" d="M28 11.037a13.262 13.262 0 00-18.847 0l9.424 9.489L28 11.036z"/><path fill="#008883" d="M9.153 30.015l9.423-9.49-9.423-9.488c-5.204 5.24-5.204 13.737 0 18.978z"/><path fill="#EF5F54" d="M46.847 30.015c5.204-5.24 5.204-13.738 0-18.978l-9.424 9.489 9.424 9.49z"/><path fill="#FD9F82" d="M28 11.037l9.424 9.489 9.424-9.49a13.28 13.28 0 00-9.424-3.93A13.28 13.28 0 0028 11.036z"/><path fill="#617DC6" d="M37.424 20.527L28 11.037l-9.423 9.49L28 30.017z"/><path fill="#1A5F78" d="M18.577 20.527l-9.424 9.488v.001l9.424 9.49L28 30.015z"/><path fill="#AF385C" d="M28 30.013l9.424-9.49 9.424 9.49-9.424 9.49z"/><path fill="#344560" d="M18.576 39.507l9.423-9.489 9.424 9.49-9.424 9.489z"/></g></svg>