<svg xmlns="http://www.w3.org/2000/svg" xmlns:xlink="http://www.w3.org/1999/xlink" width="24" height="24" viewBox="0 0 24 24"><defs><symbol id="icon_smile" viewBox="0 0 24 24"><path id="icon_smile-a" fill-rule="evenodd" d="M12 2a9.69 9.69 0 013.89.79 10.155 10.155 0 013.176 2.144c.902.901 1.616 1.96 2.143 3.176A9.674 9.674 0 0122 12a9.674 9.674 0 01-.79 3.89 10.155 10.155 0 01-2.144 3.176 10.155 10.155 0 01-3.176 2.143A9.674 9.674 0 0112 22a9.674 9.674 0 01-3.89-.79 10.155 10.155 0 01-3.176-2.144A10.155 10.155 0 012.79 15.89 9.674 9.674 0 012 12a9.69 9.69 0 01.79-3.89 10.155 10.155 0 012.144-3.176A10.155 10.155 0 018.11 2.79 9.674 9.674 0 0112 2zm0 1.505a8.143 8.143 0 00-3.304.676 8.704 8.704 0 00-2.69 1.824A8.704 8.704 0 004.18 8.696 8.143 8.143 0 003.505 12c0 1.173.225 2.275.676 3.304a8.704 8.704 0 001.824 2.69 8.704 8.704 0 002.691 1.825c1.03.45 2.13.676 3.304.676a8.143 8.143 0 003.304-.676 8.704 8.704 0 002.69-1.824 8.704 8.704 0 001.825-2.691c.45-1.03.676-2.13.676-3.304a8.143 8.143 0 00-.676-3.304 8.704 8.704 0 00-1.824-2.69 8.704 8.704 0 00-2.691-1.825A8.143 8.143 0 0012 3.505zm4.062 9.995c.622.198.423.81.423.81s-.985 3.123-4.63 3.123c-3.644 0-4.63-3.122-4.63-3.122s-.198-.613.424-.81c.622-.198.865.4.865.4s.455 2.147 3.341 2.147c2.887 0 3.342-2.147 3.342-2.147l.015-.033c.062-.122.317-.537.85-.368zm-7.31-5.508c2.465 0 2.262 2.431 2.262 2.431s0 .528-.509.528c-.508 0-.518-.464-.518-.464s.15-1.289-1.24-1.289c-1.392 0-1.223 1.289-1.223 1.289s-.08.464-.559.464c-.479 0-.527-.528-.527-.528s-.153-2.43 2.313-2.43zm6.525 0c2.467 0 2.263 2.431 2.263 2.431s0 .528-.508.528a.539.539 0 01-.562-.464s.177-1.289-1.214-1.289-1.246 1.289-1.246 1.289-.04.464-.519.464c-.479 0-.526-.528-.526-.528s-.154-2.43 2.312-2.43z"/></symbol></defs><use xlink:href="#icon_smile-a"/></svg>