<svg xmlns="http://www.w3.org/2000/svg" width="48" height="48" viewBox="0 0 48 48"><g fill="none" fill-rule="evenodd"><path fill="#00000A" fill-opacity=".15" d="M36.26 33.38l-12.74 5.31-12.78-6.39v-8.5l12.12 5.74c.403.2.877.2 1.28 0l12.12-5.74v9.58z" opacity=".65"/><path fill="#000" d="M22.87 9.14c.398-.19.862-.19 1.26 0l20.58 9.75h.04a.501.501 0 010 .91l-.82.39v7.84a.49.49 0 01-.3.46.491.491 0 01-.54-.1l-1.86-1.76-1.86 1.87a.507.507 0 01-.36.15.605.605 0 01-.19 0 .51.51 0 01-.31-.46v-5.44l-1.21.58v10.38a.49.49 0 01-.3.46l-13.31 5.52a.407.407 0 01-.19 0 .543.543 0 01-.22 0l-13.27-6.63a.5.5 0 01-.27-.45v-9.28L2.29 19.8a.501.501 0 010-.91zM36.26 23.8l-12.12 5.74c-.403.2-.877.2-1.28 0L10.74 23.8v8.5l12.78 6.39 12.74-5.31V23.8zM23.7 10a.514.514 0 00-.4 0L3.67 19.34l19.62 9.3c.134.06.286.06.42 0l19.62-9.34zm19.19 10.68l-3.42 1.62V27l1.36-1.39a.51.51 0 01.7 0l1.36 1.3v-6.23zm-19.18-8.3l8.5 4a.5.5 0 01.24.67.49.49 0 01-.66.23l-8.28-3.9-4.79 2.39a.489.489 0 01-.67-.22.5.5 0 01.23-.67l5-2.5a.498.498 0 01.43 0z"/></g></svg>