<svg xmlns="http://www.w3.org/2000/svg" width="48" height="48" viewBox="0 0 48 48"><g fill="none" fill-rule="evenodd"><path fill="#00000A" fill-opacity=".15" d="M23.66 4a12.732 12.732 0 0110.57 19.85l-10.11 15a.52.52 0 01-.83 0l-10.08-15c-3.832-5.662-2.507-13.34 3-17.39l.311-.223A12.555 12.555 0 0123.66 4zm.02 7.09a5.5 5.5 0 100 11 5.5 5.5 0 100-11z" opacity=".65"/><path fill="#000" d="M32.18 43.09a.5.5 0 01.5.5.51.51 0 01-.5.5h-17a.5.5 0 010-1h17zm-.45-37.43c5.952 4.337 7.398 12.61 3.27 18.71l-10.11 15a1.48 1.48 0 01-1.21.69 1.492 1.492 0 01-1.25-.66l-10.08-15c-4.057-6.017-2.72-14.132 2.999-18.536l.271-.204a13.519 13.519 0 0116.11 0zM23.66 4a12.555 12.555 0 00-7.139 2.237l-.311.223c-5.507 4.05-6.832 11.728-3 17.39l10.08 15a.52.52 0 00.83 0l10.11-15A12.729 12.729 0 0023.66 4zm.02 6.09a6.5 6.5 0 016.5 6.5 6.51 6.51 0 01-6.5 6.5 6.5 6.5 0 110-13zm0 1a5.5 5.5 0 100 11 5.5 5.5 0 100-11zm2.03-5a8.46 8.46 0 017.11 5.78.5.5 0 01-.32.63l-.16.03a.5.5 0 01-.47-.35 7.33 7.33 0 00-6.23-5.09.502.502 0 01.07-1z"/></g></svg>