<svg xmlns="http://www.w3.org/2000/svg" width="48" height="48" viewBox="0 0 48 48"><g fill="none" fill-rule="evenodd"><path fill="#00000A" fill-opacity=".15" d="M19.95 19.8a10.871 10.871 0 008.32 8.32 9.686 9.686 0 010 2.71l-.03-.03a13.521 13.521 0 01-11-11 9.686 9.686 0 012.71 0zM31.324 4.015a13.499 13.499 0 0112.66 12.661A13.498 13.498 0 0132.94 30.77c0-.42.06-.84.06-1.27.002-.484-.021-.968-.07-1.45a10.83 10.83 0 10-13-13A13.926 13.926 0 0018.5 15c-.43 0-.85 0-1.27.06A13.5 13.5 0 0131.324 4.015z" opacity=".65"/><path fill="#000" d="M30.5 3c7.547.015 13.82 5.818 14.424 13.341.603 7.523-4.665 14.251-12.114 15.469-1.178 7.318-7.685 12.57-15.087 12.175A14.5 14.5 0 014.015 30.277C3.62 22.875 8.872 16.367 16.19 15.19A14.51 14.51 0 0130.5 3zm-12 13c-.481 0-.962.027-1.44.08-.336.031-.67.081-1 .15A13.499 13.499 0 005.012 30.329a13.5 13.5 0 0012.673 12.657A13.499 13.499 0 0031.77 31.92c.069-.33.119-.664.15-1 .043-.482.06-.966.05-1.45 0-.43-.06-.85-.06-1.27a8.41 8.41 0 00-.14-1 13.521 13.521 0 00-11-11 8.41 8.41 0 00-1-.14c-.42-.06-.84-.06-1.27-.06zm17.31 23.84l.67 2.53a.48.48 0 01-.35.61L36 43a.5.5 0 01-.48-.37l-.68-2.53a.5.5 0 01.35-.61.511.511 0 01.62.35zm3.55-2.23l3 3a.51.51 0 010 .71.518.518 0 01-.71 0l-3-3a.503.503 0 01.71-.71zM18.52 18.69c.418-.004.836.023 1.25.08.336.033.67.086 1 .16a10.871 10.871 0 018.32 8.32c.074.33.127.664.16 1 .068.423.105.851.11 1.28.002.482-.031.963-.1 1.44-.04.337-.1.67-.18 1a10.83 10.83 0 11-13-13c.33-.08.663-.14 1-.18a9.771 9.771 0 011.44-.1zm-2.31 1.25a9.83 9.83 0 002.29 19.39 9.85 9.85 0 009.56-7.54 14.492 14.492 0 01-11.85-11.85zM41.1 33.85l2.53.68a.492.492 0 01.35.61.5.5 0 01-.48.35.285.285 0 01-.13 0l-2.53-.68a.478.478 0 01-.35-.61.5.5 0 01.61-.35zM19.95 19.8a9.686 9.686 0 00-2.71 0 13.521 13.521 0 0011 11l.03.03a9.686 9.686 0 000-2.71 10.871 10.871 0 01-8.32-8.32zM31.324 4.015A13.5 13.5 0 0017.23 15.06c.42-.06.84-.06 1.27-.06.477-.008.955.009 1.43.05a10.83 10.83 0 1113 13c.049.482.072.966.07 1.45 0 .43-.06.85-.06 1.27a13.5 13.5 0 00-1.616-26.754zm-.055 3.686A9.83 9.83 0 0020.94 15.21a14.492 14.492 0 0111.85 11.85 9.832 9.832 0 007.51-10.33 9.835 9.835 0 00-9.03-9.03zM21 20a9.892 9.892 0 007 7 9.892 9.892 0 00-7-7zM5.63 11.49l2.53.68a.478.478 0 01.35.61.5.5 0 01-.51.41h-.13l-2.5-.7a.517.517 0 01.26-1zM7.41 5.7l3 3a.5.5 0 010 .71.488.488 0 01-.35.15.507.507 0 01-.36-.15l-3-3a.502.502 0 01.71-.71zm5.849-1.654a.492.492 0 01.231.304l.68 2.53a.5.5 0 01-.35.61.329.329 0 01-.13.04.5.5 0 01-.48-.37l-.68-2.53a.48.48 0 01.35-.63.488.488 0 01.379.046z"/></g></svg>