<svg xmlns="http://www.w3.org/2000/svg" width="48" height="48" viewBox="0 0 48 48"><g fill="none" fill-rule="evenodd"><path fill="#00000A" fill-opacity=".15" d="M37 24.9c.4 0 .785.158 1.07.44.283.283.438.67.43 1.07v5.75a1.538 1.538 0 01-.87 1.29l-.73.42a2.001 2.001 0 00-1 1.74V39c0 .13-.05.256-.14.35a.488.488 0 01-.36.15h-5.74a.479.479 0 01-.36-.15.507.507 0 01-.14-.35v-3.36c0-.743-.412-1.425-1.07-1.77l-.8-.43a1.479 1.479 0 01-.79-1.34v-5.72a1.57 1.57 0 011.59-1.48zM32.37 13a4.5 4.5 0 110 9 4.5 4.5 0 010-9z" opacity=".65"/><path fill="#000" d="M37 23.9a2.553 2.553 0 011.78.73c.465.475.724 1.115.72 1.78v5.76c-.026.9-.529 1.72-1.32 2.15l-.74.42a1 1 0 00-.51.87V39a1.488 1.488 0 01-1.5 1.5h-5.74a1.488 1.488 0 01-1.5-1.5v-3.36c0-.374-.208-.718-.54-.89l-.8-.42a2.492 2.492 0 01-1.35-2.23v-5.72a2.58 2.58 0 012.59-2.48H37zm-17-4.4a2.499 2.499 0 011.77.74c.468.474.73 1.114.73 1.78v8.14a2.538 2.538 0 01-1.33 2.16l-.73.42a1 1 0 00-.51.87V39c0 .396-.154.776-.43 1.06a1.5 1.5 0 01-1.07.44h-5.75a1.5 1.5 0 01-1.5-1.5v-5.36a.999.999 0 00-.53-.89l-.8-.43A2.47 2.47 0 018.5 30.1v-8.11a2.581 2.581 0 012.58-2.49H20zm17 5.4h-8.91a1.57 1.57 0 00-1.59 1.48v5.72c-.012.56.294 1.079.79 1.34l.8.43a1.998 1.998 0 011.07 1.77V39c0 .13.05.256.14.35a.479.479 0 00.36.15h5.74a.488.488 0 00.36-.15c.09-.094.14-.22.14-.35v-3.39a2.001 2.001 0 011-1.74l.73-.42c.502-.241.835-.734.87-1.29v-5.75c.008-.4-.147-.787-.43-1.07A1.522 1.522 0 0037 24.9zm-17-4.4h-8.92a1.57 1.57 0 00-1.58 1.49v8.11a1.49 1.49 0 00.8 1.34l.8.43a2 2 0 011.06 1.77V39a.51.51 0 00.5.5h5.77a.507.507 0 00.36-.15c.09-.094.14-.22.14-.35v-5.39a2.001 2.001 0 011-1.74l.74-.42a1.56 1.56 0 00.83-1.29v-8.15A1.5 1.5 0 0020 20.5zM32.37 12a5.5 5.5 0 110 11 5.5 5.5 0 110-11zm0 1a4.5 4.5 0 100 9 4.5 4.5 0 000-9zM15.36 7.5a5.5 5.5 0 015.5 5.5 5.511 5.511 0 01-5.5 5.5 5.5 5.5 0 110-11zm0 1a4.5 4.5 0 104.5 4.5 4.51 4.51 0 00-4.5-4.5z"/></g></svg>