<svg xmlns="http://www.w3.org/2000/svg" width="32" height="32" viewBox="0 0 32 32"><g fill="none"><path fill="#0CAEB1" d="M16 6.307a7.578 7.578 0 00-10.77 0l5.385 5.422L16 6.307z"/><path fill="#008883" d="M5.23 17.152l5.385-5.423L5.23 6.307c-2.973 2.994-2.973 7.85 0 10.845z"/><path fill="#EF5F54" d="M26.77 17.152c2.973-2.995 2.973-7.85 0-10.845l-5.385 5.422 5.385 5.423z"/><path fill="#FD9F82" d="M16 6.307l5.385 5.422 5.385-5.422a7.589 7.589 0 00-5.385-2.247c-2.02 0-3.957.808-5.385 2.247z"/><path fill="#617DC6" d="M21.385 11.73L16 6.307l-5.385 5.423L16 17.152z"/><path fill="#1A5F78" d="M10.615 11.73L5.23 17.152l5.385 5.423L16 17.152z"/><path fill="#AF385C" d="M16 17.15l5.385-5.423 5.386 5.423-5.386 5.423z"/><path fill="#344560" d="M10.615 22.576L16 17.153l5.384 5.423L16 27.998z"/></g></svg>