<svg xmlns="http://www.w3.org/2000/svg" xmlns:xlink="http://www.w3.org/1999/xlink" width="1024" height="512" viewBox="0 0 1024 512"><defs><linearGradient id="b" x1="100%" x2="0%" y1="37.5%" y2="62.5%"><stop offset="0%" stop-color="#FFB600"/><stop offset="100%" stop-color="#E90F00"/></linearGradient><linearGradient id="d" x1="100%" x2="0%" y1="37.5%" y2="62.5%"><stop offset="0%" stop-color="#FFCB4A"/><stop offset="49.546%" stop-color="#F16500"/><stop offset="100%" stop-color="#EF5F55"/></linearGradient><path id="a" d="M0 0h1024v512H0z"/></defs><g fill="none" fill-rule="evenodd"><mask id="c" fill="#fff"><use xlink:href="#a"/></mask><use fill="url(#b)" xlink:href="#a"/><g fill="#FFF" mask="url(#c)" opacity=".75"><path d="M1120 195.863L1233.137 309 1120 422.137 1006.863 309z" opacity=".4"/><path d="M1007.137 309l113.138 113.137-113.138 113.137L894 422.137z" opacity=".5"/><path d="M894.137 422l113.138 113.137-113.138 113.137L781 535.137z" opacity=".6"/><path d="M1120-30.137L1233.137 83 1120 196.137 1006.863 83z" opacity=".3"/><path d="M1007 82.863L1120.137 196 1007 309.137 893.863 196z" opacity=".5"/><path d="M894 195.863L1007.137 309 894 422.137 780.863 309z" opacity=".6"/><path d="M781.137 309l113.138 113.137-113.138 113.137L668 422.137z" opacity=".7"/><path d="M668.137 422l113.138 113.137-113.138 113.137L555 535.137z" opacity=".8"/><path d="M1007-143.137L1120.137-30 1007 83.137 893.863-30z" opacity=".5"/><path d="M894-30.137L1007.137 83 894 196.137 780.863 83z" opacity=".6"/><path d="M781 82.863L894.137 196 781 309.137 667.863 196z" opacity=".7"/><path d="M668 195.863L781.137 309 668 422.137 554.863 309z" opacity=".8"/><path d="M555.137 309l113.138 113.137-113.138 113.137L442 422.137z" opacity=".9"/><path d="M442.137 422l113.138 113.137-113.138 113.137L329 535.137z" opacity=".8"/><path d="M781-143.137L894.137-30 781 83.137 667.863-30z" opacity=".5"/><path d="M668-30.137L781.137 83 668 196.137 554.863 83z" opacity=".6"/><path d="M555 82.863L668.137 196 555 309.137 441.863 196z" opacity=".7"/><path d="M442 195.863L555.137 309 442 422.137 328.863 309z" opacity=".8"/><path d="M329.137 309l113.138 113.137-113.138 113.137L216 422.137z" opacity=".7"/><path d="M216.137 422l113.138 113.137-113.138 113.137L103 535.137z" opacity=".6"/><path d="M555-143.137L668.137-30 555 83.137 441.863-30z" opacity=".5"/><path d="M442-30.137L555.137 83 442 196.137 328.863 83z" opacity=".6"/><path d="M329 82.863L442.137 196 329 309.137 215.863 196z" opacity=".7"/><path d="M216 195.863L329.137 309 216 422.137 102.863 309z" opacity=".6"/><path d="M103.137 309l113.138 113.137-113.138 113.137L-10 422.137z" opacity=".5"/><path d="M-9.863 422l113.138 113.137L-9.863 648.274-123 535.137z" opacity=".4"/><path d="M329-143.137L442.137-30 329 83.137 215.863-30z" opacity=".5"/><path d="M216-30.137L329.137 83 216 196.137 102.863 83z" opacity=".6"/><path d="M103 82.863L216.137 196 103 309.137-10.137 196z" opacity=".5"/><path d="M-10 195.863L103.137 309-10 422.137-123.137 309z" opacity=".4"/><path d="M103-143.137L216.137-30 103 83.137-10.137-30z" opacity=".5"/><path d="M-10-30.137L103.137 83-10 196.137-123.137 83z" opacity=".4"/></g><path fill="url(#d)" d="M0 0h1024v512H0z" mask="url(#c)" opacity=".5"/></g></svg>