<svg width="372" height="66" viewBox="0 0 372 66" xmlns="http://www.w3.org/2000/svg" xmlns:xlink="http://www.w3.org/1999/xlink"><defs><path id="path-1" d="M0 0h372v66H0l14-33z"/><path id="path-3" d="M3 0h369v66H3l14-33z"/><path id="path-6" d="M0 186h372V0H0z"/><linearGradient x1="0%" y1="50%" x2="100%" y2="50%" id="linearGradient-5"><stop stop-color="#FF6E60" offset="0%"/><stop stop-color="#ED4337" offset="62.83%"/><stop stop-color="#ED4F44" offset="100%"/></linearGradient></defs><g id="eh_discount_bg" stroke="none" stroke-width="1" fill="none" fill-rule="evenodd"><mask id="mask-2" fill="#fff"><use xlink:href="#path-1"/></mask><use id="bg_white" fill="#FFF" xlink:href="#path-1"/><mask id="mask-4" fill="#fff"><use xlink:href="#path-3"/></mask><use id="bg_offer" fill="#FFF" xlink:href="#path-3"/><g id="image/premium/💚_offer_default_vector" mask="url(#mask-4)"><g transform="translate(0 -59.5)"><mask id="mask-7" fill="#fff"><use xlink:href="#path-6"/></mask><use id="offer_default_vector" stroke="none" fill="url(#linearGradient-5)" fill-rule="evenodd" xlink:href="#path-6"/><g id="eh_heart_invert" opacity=".75" stroke="none" stroke-width="1" fill="none" fill-rule="evenodd" mask="url(#mask-7)"><g transform="matrix(1 0 0 -1 -204.89 236.86)" fill="#FFF"><path id="6" opacity=".5" transform="rotate(45 738.982 41.142)" d="M709.92 12.08h58.125v58.124H709.92z"/><path id="5" opacity=".5" transform="rotate(45 697.931 82.192)" d="M668.869 53.13h58.125v58.125h-58.125z"/><path id="4" opacity=".5" transform="rotate(45 656.88 123.243)" d="M627.818 94.18h58.125v58.126h-58.125z"/><path id="2" opacity=".05" transform="rotate(45 574.829 205.395)" d="M545.766 176.332h58.125v58.125h-58.125z"/><path id="1" opacity=".15" transform="rotate(45 533.778 246.445)" d="M504.716 217.383h58.125v58.125h-58.125z"/><path id="6" opacity=".5" transform="rotate(45 656.88 41.142)" d="M627.818 12.08h58.125v58.124h-58.125z"/><path id="4" opacity=".05" transform="rotate(45 574.78 123.243)" d="M545.717 94.18h58.125v58.126h-58.125z"/><path id="3" opacity=".15" transform="rotate(45 533.728 164.294)" d="M504.666 135.231h58.125v58.125h-58.125z"/><path id="2" opacity=".3" transform="rotate(45 492.727 205.395)" d="M463.665 176.332h58.125v58.125h-58.125z"/><path id="1" opacity=".4" transform="rotate(45 451.677 246.445)" d="M422.614 217.383h58.125v58.125h-58.125z"/><path id="6" opacity=".05" transform="rotate(45 574.78 41.142)" d="M545.717 12.08h58.125v58.124h-58.125z"/><path id="5" opacity=".15" transform="rotate(45 533.728 82.192)" d="M504.666 53.13h58.125v58.125h-58.125z"/><path id="4" opacity=".3" transform="rotate(45 492.677 123.243)" d="M463.615 94.18h58.125v58.126h-58.125z"/><path id="3" opacity=".4" transform="rotate(45 451.627 164.294)" d="M422.564 135.231h58.125v58.125h-58.125z"/><path id="2" opacity=".5" transform="rotate(45 410.626 205.395)" d="M381.563 176.332h58.125v58.125h-58.125z"/><path id="1" opacity=".4" transform="rotate(45 369.575 246.445)" d="M340.512 217.383h58.125v58.125h-58.125z"/><path id="6" opacity=".1" transform="rotate(45 492.677 41.142)" d="M463.615 12.08h58.125v58.124h-58.125z"/><path id="5" opacity=".2" transform="rotate(45 451.627 82.192)" d="M422.564 53.13h58.125v58.125h-58.125z"/><path id="4" opacity=".3" transform="rotate(45 410.576 123.243)" d="M381.513 94.18h58.125v58.126h-58.125z"/><path id="3" opacity=".4" transform="rotate(45 369.525 164.294)" d="M340.463 135.231h58.125v58.125h-58.125z"/><path id="2" opacity=".3" transform="rotate(45 328.524 205.395)" d="M299.462 176.332h58.125v58.125h-58.125z"/><path id="1" opacity=".2" transform="rotate(45 287.473 246.445)" d="M258.41 217.383h58.126v58.125H258.41z"/><path id="6" opacity=".1" transform="rotate(45 410.576 41.142)" d="M381.513 12.08h58.125v58.124h-58.125z"/><path id="5" opacity=".2" transform="rotate(45 369.525 82.192)" d="M340.463 53.13h58.125v58.125h-58.125z"/><path id="4" opacity=".3" transform="rotate(45 328.474 123.243)" d="M299.412 94.181h58.125v58.125h-58.125z"/><path id="3" opacity=".2" transform="rotate(45 287.424 164.294)" d="M258.361 135.231h58.125v58.125h-58.125z"/><path id="2" opacity=".1" transform="rotate(45 246.423 205.395)" d="M217.36 176.332h58.125v58.125H217.36z"/><path id="6" opacity=".1" transform="rotate(45 328.474 41.142)" d="M299.412 12.08h58.125v58.124h-58.125z"/><path id="5" opacity=".2" transform="rotate(45 287.424 82.192)" d="M258.361 53.13h58.125v58.125h-58.125z"/><path id="4" opacity=".1" transform="rotate(45 246.373 123.243)" d="M217.31 94.18h58.125v58.126H217.31z"/><path id="1" opacity=".5" transform="rotate(45 123.27 246.445)" d="M94.208 217.383h58.125v58.125H94.208z"/><path id="6" opacity=".1" transform="rotate(45 246.373 41.142)" d="M217.31 12.08h58.125v58.124H217.31z"/><path id="3" opacity=".5" transform="rotate(45 123.22 164.294)" d="M94.158 135.231h58.125v58.125H94.158z"/><path id="2" opacity=".5" transform="rotate(45 82.22 205.395)" d="M53.157 176.332h58.125v58.125H53.157z"/><path id="1" opacity=".5" transform="rotate(45 41.169 246.445)" d="M12.106 217.383h58.125v58.125H12.106z"/></g></g><path id="offer_default_vector" stroke="none" fill="url(#linearGradient-5)" fill-rule="evenodd" opacity=".45" mask="url(#mask-7)" d="M0 186h372V0H0z"/></g></g></g></svg>