<?xml version="1.0" encoding="UTF-8"?>
<svg width="46px" height="46px" viewBox="0 0 46 46" version="1.1" xmlns="http://www.w3.org/2000/svg" xmlns:xlink="http://www.w3.org/1999/xlink">
    <!-- Generator: Sketch 57.1 (83088) - https://sketch.com -->
    <title>Erfolgsteaser1</title>
    <desc>Created with Sketch.</desc>
    <g id="Erfolgsteaser1" stroke="none" stroke-width="1" fill="none" fill-rule="evenodd">
        <g id="icon/secure/❤️_icon_lock_heart" transform="translate(8.000000, 3.000000)" fill="#098A94">
            <path d="M4.53703704,14.3667123 L4.53703704,9.62962963 C4.53703704,6.97529537 5.47838565,4.70679954 7.36111111,2.82407407 C9.24383657,0.941348611 11.5431963,0 14.2592593,0 L15.3703704,0 C18.0864333,0 20.3857931,0.941348611 22.2685185,2.82407407 C24.151244,4.70679954 25.0925926,7.00615926 25.0925926,9.72222222 L25.0925926,14.3685543 C25.8196788,14.7571343 26.4929019,15.2494337 27.0884633,15.8357482 C30.4768565,19.1722326 30.4767422,24.5808812 27.0877774,27.9168881 L20.9519106,33.9562731 L14.8142477,40 L8.67774054,33.9594151 L2.54180934,27.9175633 C-0.84726978,24.5807686 -0.84726978,19.1718677 2.54180934,15.8357482 C3.14763615,15.2394885 3.82072774,14.7498099 4.53703704,14.3667123 Z M21.4814815,10.2777778 C21.4814815,8.42591667 20.8333398,6.85185833 19.537037,5.55555556 C18.2407343,4.25925278 16.6666759,3.61111111 14.8148148,3.61111111 C12.9629537,3.61111111 11.3888954,4.25925278 10.0925926,5.55555556 C8.79628981,6.85185833 8.14814815,8.42591667 8.14814815,10.2777778 L8.14814815,13.3359869 C9.40458984,13.2498178 10.5999693,13.4231797 11.7342864,13.8560724 C12.8686036,14.2889651 13.8954464,14.9636764 14.8148148,15.8802062 C15.790384,14.9300822 16.8560295,14.255371 18.0117512,13.8560724 C19.167473,13.4567738 20.3240497,13.2937774 21.4814815,13.3670831 L21.4814815,10.2777778 Z M13.8888889,25.0925926 C13.456788,24.9074065 13.1018532,24.6141995 12.8240741,24.212963 C12.5462949,23.8117264 12.4074074,23.3642 12.4074074,22.8703704 C12.4074074,22.1913546 12.6388866,21.6203727 13.1018519,21.1574074 C13.5648171,20.6944421 14.1357991,20.462963 14.8148148,20.462963 C15.4938306,20.462963 16.0648125,20.6944421 16.5277778,21.1574074 C16.9907431,21.6203727 17.2222222,22.1913546 17.2222222,22.8703704 C17.2222222,23.3642 17.0833347,23.8117264 16.8055556,24.212963 C16.5277764,24.6141995 16.1728417,24.9074065 15.7407407,25.0925926 L16.4039692,29.602546 C16.415017,29.6776714 16.4205631,29.7535035 16.4205631,29.8294369 C16.4205631,30.6906985 15.7223727,31.3888889 14.8611111,31.3888889 C14.7916808,31.3888889 14.7223257,31.3843191 14.6534955,31.3752093 C13.7871536,31.2605464 13.1777973,30.4652848 13.2924602,29.5989428 L13.8888889,25.0925926 Z" id="icon_mask"></path>
        </g>
    </g>
</svg>
