<?xml version="1.0" encoding="UTF-8"?>
<svg width="46px" height="46px" viewBox="0 0 46 46" version="1.1" xmlns="http://www.w3.org/2000/svg" xmlns:xlink="http://www.w3.org/1999/xlink">
    <!-- Generator: Sketch 57.1 (83088) - https://sketch.com -->
    <title>Erfolgsteaser2</title>
    <desc>Created with Sketch.</desc>
    <defs>
        <path d="M7.12978245,17.5502337 C10.0345086,17.5502337 12.4111028,15.2102026 12.4111028,12.3501645 C12.4111028,9.49012638 10.0345086,7.15009522 7.12978245,7.15009522 C4.22505626,7.15009522 1.84846212,9.49012638 1.84846212,12.3501645 C1.84846212,15.2102026 4.22505626,17.5502337 7.12978245,17.5502337 Z M11.8829707,18.850251 L2.64066017,18.850251 C1.18829707,18.850251 0,20.0202666 0,21.4502856 L0,27.9503722 C0,29.3803913 1.18829707,30.5504068 2.64066017,30.5504068 L2.64066017,37.0504934 C2.64066017,38.4805124 3.82895724,39.650528 5.28132033,39.650528 L9.24231058,39.650528 C10.6946737,39.650528 11.8829707,38.4805124 11.8829707,37.0504934 L11.8829707,30.5504068 C13.3353338,30.5504068 14.5236309,29.3803913 14.5236309,27.9503722 L14.5236309,21.4502856 C14.5236309,20.0202666 13.3353338,18.850251 11.8829707,18.850251 Z M26.9347337,17.5502337 C29.8394599,17.5502337 32.216054,15.2102026 32.216054,12.3501645 C32.216054,9.49012638 29.8394599,7.15009522 26.9347337,7.15009522 C24.0300075,7.15009522 21.6534134,9.49012638 21.6534134,12.3501645 C21.6534134,15.2102026 24.0300075,17.5502337 26.9347337,17.5502337 Z M31.687922,18.850251 L22.4456114,18.850251 C20.9932483,18.850251 19.8049512,20.0202666 19.8049512,21.4502856 L19.8049512,27.9503722 C19.8049512,29.3803913 20.9932483,30.5504068 22.4456114,30.5504068 L22.4456114,37.0504934 C22.4456114,38.4805124 23.6339085,39.650528 25.0862716,39.650528 L29.0472618,39.650528 C30.4996249,39.650528 31.687922,38.4805124 31.687922,37.0504934 L31.687922,30.5504068 C33.1402851,30.5504068 34.3285821,29.3803913 34.3285821,27.9503722 L34.3285821,21.4502856 C34.3285821,20.0202666 33.1402851,18.850251 31.687922,18.850251 Z M17.1642911,1.95002597 C15.447862,-0.520006925 12.2790698,1.04001385 12.2790698,3.38004501 C12.2790698,5.20006925 15.1837959,6.76009002 17.1642911,9.49012638 C19.2768192,6.63008829 22.0495124,5.07006752 22.0495124,3.38004501 C22.0495124,1.04001385 18.8807202,-0.650008656 17.1642911,1.95002597 Z" id="path-1"></path>
    </defs>
    <g id="Erfolgsteaser2" stroke="none" stroke-width="1" fill="none" fill-rule="evenodd">
        <g id="icon/💚_icon_love-couple" transform="translate(6.000000, 3.000000)">
            <mask id="mask-2" fill="white">
                <use xlink:href="#path-1"></use>
            </mask>
            <use id="icon_mask" fill="#098A94" xlink:href="#path-1"></use>
        </g>
    </g>
</svg>
