<svg viewBox="0 0 1024 512" width="1024" height="512" xmlns="http://www.w3.org/2000/svg" xmlns:xlink="http://www.w3.org/1999/xlink"><defs><radialGradient id="e"><stop stop-color="#00DBDF" offset="0"/><stop stop-color="#0CAEB1" stop-opacity="0" offset="1"/></radialGradient><radialGradient id="d"><stop stop-color="#D6F8FF" offset="0"/><stop stop-color="#0C94B1" stop-opacity="0" offset="1"/></radialGradient><path id="c" d="M0 0h1024v512H0z"/><path id="f" d="M.8 0h1024v512H.8z"/><linearGradient id="g" x1="0%" y1="62.5%" y2="37.5%"><stop stop-color="#0A9FA3" offset="0"/><stop stop-color="#3F5DA6" offset="1"/></linearGradient></defs><g fill="none" fill-rule="evenodd"><mask id="b" fill="#fff"><use xlink:href="#c"/></mask><use fill="url(#g)" xlink:href="#c"/><circle cy="512" r="450" fill="url(#e)" mask="url(#b)" opacity=".5"/><circle cx="1024" r="600" fill="url(#d)" mask="url(#b)" opacity=".35"/><g mask="url(#b)" fill-opacity=".5"><g transform="matrix(1 0 0 -1 -1 512)"><mask id="a" fill="#fff"><use xlink:href="#f"/></mask><path fill="#fff" mask="url(#a)" opacity=".18" d="M768.94 152.66l64.04 64.03-64.04 64.04-64.04-64.04zm-.08 127.99l64.04 64.04-64.04 64.04-64.04-64.04z"/><path fill="#fff" mask="url(#a)" opacity=".26" d="M704.9 216.69l64.04 64.04-64.04 64.04-64.03-64.04z"/><path fill="#fff" mask="url(#a)" opacity=".32" d="M641.02 152.66l64.04 64.03-64.04 64.04-64.04-64.04z"/><path fill="#fff" mask="url(#a)" opacity=".28" d="M640.83 24.425l64.04 64.037-64.04 64.038-64.04-64.038z"/><path fill="#fff" mask="url(#a)" opacity=".2" d="M704.9 344.61l64.04 64.04-64.04 64.04-64.03-64.04z"/><path fill="#fff" mask="url(#a)" opacity=".3" d="M640.94 280.65l64.04 64.04-64.04 64.04-64.03-64.04z"/><path fill="#fff" mask="url(#a)" opacity=".4" d="M576.98 216.69l64.04 64.04-64.04 64.04-64.03-64.04z"/><path fill="#fff" mask="url(#a)" opacity=".45" d="M513.1 152.66l64.04 64.03-64.04 64.04-64.04-64.04z"/><path fill="#fff" mask="url(#a)" opacity=".25" d="M576.98 344.61l64.04 64.04-64.04 64.04-64.03-64.04z"/><path fill="#fff" mask="url(#a)" opacity=".35" d="M513.02 280.65l64.04 64.04-64.04 64.04-64.03-64.04z"/><path fill="#fff" mask="url(#a)" opacity=".4" d="M449.06 216.69l64.04 64.04-64.04 64.04-64.03-64.04z"/><path fill="#fff" mask="url(#a)" opacity=".32" d="M385.18 152.66l64.04 64.03-64.04 64.04-64.04-64.04z"/><path fill="#fff" mask="url(#a)" opacity=".28" d="M384.99 24.425l64.04 64.037-64.04 64.038-64.04-64.038z"/><path fill="#fff" mask="url(#a)" opacity=".25" d="M449.06 344.61l64.04 64.04-64.04 64.04-64.03-64.04z"/><path fill="#fff" mask="url(#a)" opacity=".3" d="M385.1 280.65l64.04 64.04-64.04 64.04-64.03-64.04z"/><path fill="#fff" mask="url(#a)" opacity=".26" d="M321.14 216.69l64.04 64.04-64.04 64.04-64.03-64.04z"/><path fill="#fff" mask="url(#a)" opacity=".18" d="M257.26 152.66l64.04 64.03-64.04 64.04-64.04-64.04z"/><path fill="#fff" mask="url(#a)" opacity=".2" d="M321.14 344.61l64.04 64.04-64.04 64.04-64.03-64.04z"/><path fill="#fff" mask="url(#a)" opacity=".18" d="M257.18 280.65l64.04 64.04-64.04 64.04-64.03-64.04z"/><path fill="#fff" mask="url(#a)" opacity=".13" d="M193.22 216.69l64.04 64.04-64.04 64.04-64.03-64.04z"/><path fill="#fff" mask="url(#a)" opacity=".05" d="M129.19 152.66l64.03 64.03-64.03 64.04-64.04-64.04zm767.91.07l64.03 64.04-64.03 64.04-64.04-64.04z"/><path fill="#001E32" fill-opacity=".8" mask="url(#a)" opacity=".05" d="M1025.1 152.73l64.1 64.04-64.1 64.04-64.01-64.04zm-1023.976 0l64.038 64.04-64.038 64.04-64.037-64.04z"/><path fill="#fff" mask="url(#a)" opacity=".13" d="M832.98 216.69l64.03 64.04-64.03 64.04-64.04-64.04zM193.22 344.61l64.04 64.04-64.04 64.04-64.03-64.04z"/><path fill="#fff" mask="url(#a)" opacity=".08" d="M129.19 280.58l64.03 64.03-64.03 64.04-64.04-64.04zm767.91.07l64.03 64.04-64.03 64.04-64.04-64.04z"/><path fill="#001E32" fill-opacity=".8" mask="url(#a)" opacity=".05" d="M1025.1 280.65l64.1 64.04-64.1 64.04-64.01-64.04zm-1023.976 0l64.038 64.04-64.038 64.04-64.037-64.04z"/><path fill="#fff" mask="url(#a)" opacity=".13" d="M832.98 344.61l64.03 64.04-64.03 64.04-64.04-64.04z"/><path fill="#fff" mask="url(#a)" opacity=".23" d="M321.22 88.546l64.04 64.034-64.04 64.04-64.04-64.04z"/><path fill="#fff" mask="url(#a)" opacity=".38" d="M449.22 88.546l64.04 64.034-64.04 64.04-64.04-64.04z"/><path fill="#fff" mask="url(#a)" opacity=".38" d="M576.88 88.546l64.03 64.034-64.03 64.04-64.04-64.04z"/><path fill="#fff" mask="url(#a)" opacity=".23" d="M704.8 88.546l64.03 64.034-64.03 64.04-64.04-64.04z"/><path fill="#fff" mask="url(#a)" opacity=".1" d="M193.3 88.697l64.04 64.033-64.04 64.04-64.04-64.04z"/><path fill="#fff" mask="url(#a)" opacity=".05" d="M129.26 24.659l64.04 64.038-64.04 64.033-64.033-64.033zm767.91.078l64.04 64.037-64.04 64.036-64.03-64.036z"/><path fill="#001E32" fill-opacity=".8" mask="url(#a)" opacity=".05" d="M1025.2 24.737l64 64.037-64 64.036-64.04-64.036zm-1023.998 0l64.037 64.037L1.202 152.81l-64.037-64.036z"/><path fill="#fff" mask="url(#a)" opacity=".1" d="M833.05 88.697l64.04 64.033-64.04 64.04-64.03-64.04z"/><path fill="#fff" mask="url(#a)" opacity=".15" d="M257.14 24.45l64.03 64.037-64.03 64.033-64.04-64.033zm511.49-.151l64.04 64.037-64.04 64.034-64.04-64.034z"/><path fill="#fff" mask="url(#a)" opacity=".32" d="M513.05 24.299l64.04 64.037-64.04 64.034-64.03-64.034z"/><path fill="#fff" mask="url(#a)" opacity=".2" d="M321.05-39.778l64.04 64.037-64.04 64.038-64.03-64.038z"/><path fill="#fff" mask="url(#a)" opacity=".25" d="M449.05-39.778l64.04 64.037-64.04 64.038-64.03-64.038z"/><path fill="#fff" mask="url(#a)" opacity=".25" d="M576.71-39.778l64.04 64.037-64.04 64.038-64.04-64.038z"/><path fill="#fff" mask="url(#a)" opacity=".2" d="M704.63-39.778l64.04 64.037-64.04 64.038-64.04-64.038z"/><path fill="#fff" mask="url(#a)" opacity=".1" d="M193.14-39.627l64.03 64.037-64.03 64.037L129.1 24.41z"/><path fill="#fff" mask="url(#a)" opacity=".05" d="M129.1-103.66l64.04 64.033L129.1 24.41 65.062-39.627zm767.91.07l64.04 64.04-64.04 64.038-64.04-64.038z"/><path fill="#001E32" fill-opacity=".8" mask="url(#a)" opacity=".05" d="M1025-103.59l64.1 64.04-64.1 64.038-64-64.038zm-1023.964 0l64.038 64.04L1.036 24.488-63-39.55z"/><path fill="#fff" mask="url(#a)" opacity=".1" d="M832.71-39.779l64.03 64.038-64.03 64.037-64.04-64.037z"/><path fill="#fff" mask="url(#a)" opacity=".15" d="M257.14-103.71l64.03 64.041-64.03 64.038-64.04-64.038zm511.49-.15l64.04 64.041-64.04 64.037-64.04-64.037z"/><path fill="#fff" mask="url(#a)" opacity=".15" d="M640.71-103.86l64.04 64.041-64.04 64.037-64.04-64.037z"/><path fill="#fff" mask="url(#a)" opacity=".2" d="M513.05-103.86l64.04 64.041-64.04 64.037-64.03-64.037z"/><path fill="#fff" mask="url(#a)" opacity=".15" d="M385.05-103.86l64.04 64.041-64.04 64.037-64.03-64.037zm255.89 512.43l64.04 64.04-64.04 64.04-64.03-64.04z"/><path fill="#fff" mask="url(#a)" opacity=".15" d="M513.02 408.57l64.04 64.04-64.04 64.04-64.03-64.04z"/><path fill="#fff" mask="url(#a)" opacity=".15" d="M385.1 408.57l64.04 64.04-64.04 64.04-64.03-64.04z"/><path fill="#fff" mask="url(#a)" opacity=".15" d="M257.18 408.57l64.04 64.04-64.04 64.04-64.03-64.04zm511.68 0l64.04 64.04-64.04 64.04-64.04-64.04z"/><path fill="#fff" mask="url(#a)" opacity=".1" d="M704.9 472.69l64.04 64.04-64.04 64.03-64.03-64.03zm-511.68 0l64.04 64.04-64.04 64.03-64.03-64.03z"/><path fill="#fff" mask="url(#a)" opacity=".05" d="M129.19 408.65l64.03 64.04-64.03 64.04-64.04-64.04zm767.91.08l64.03 64.04-64.03 64.03-64.04-64.03z"/><path fill="#001E32" fill-opacity=".8" mask="url(#a)" opacity=".05" d="M1025.1 408.73l64.1 64.04-64.1 64.03-64.01-64.03zm-1023.976 0l64.038 64.04L1.124 536.8l-64.037-64.03z"/><path fill="#fff" mask="url(#a)" opacity=".1" d="M832.98 472.69l64.03 64.04-64.03 64.03-64.04-64.03zm-511.84 0l64.04 64.04-64.04 64.03-64.03-64.03z"/><path fill="#fff" mask="url(#a)" opacity=".1" d="M449.06 472.69l64.04 64.04-64.04 64.03-64.03-64.03z"/><path fill="#fff" mask="url(#a)" opacity=".1" d="M576.98 472.69l64.04 64.04-64.04 64.03-64.03-64.03z"/></g></g></g></svg>