<svg xmlns="http://www.w3.org/2000/svg" xmlns:xlink="http://www.w3.org/1999/xlink" width="24" height="24" viewBox="0 0 24 24"><defs><symbol id="icon_check_circle_filled" viewBox="0 0 24 24"><path id="icon_check_circle_filled-a" fill-rule="evenodd" d="M12 2C6.472 2 2 6.472 2 12s4.472 10 10 10 10-4.472 10-10S17.528 2 12 2zm5.15 7.769c-.08.063-6.445 6.458-6.445 6.458a.38.38 0 01-.55 0l-3.321-3.279c-.08-.078-.378-.584.259-1.253.637-.67 1.159-.296 1.222-.233.064.063 1.84 1.853 1.84 1.853a.38.38 0 00.55 0s4.876-4.87 4.94-4.949c.063-.078.583-.394 1.205.215.622.61.38 1.125.3 1.188z"/></symbol></defs><use xlink:href="#icon_check_circle_filled-a"/></svg>