<svg xmlns="http://www.w3.org/2000/svg" xmlns:xlink="http://www.w3.org/1999/xlink" width="24" height="24" viewBox="0 0 24 24"><defs><symbol id="icon_arrow_right_regular" viewBox="0 0 24 24"><path id="icon_arrow_right_regular-a" fill-rule="evenodd" d="M4.53 17.838L12 10.499l7.496 7.361a.485.485 0 00.352.137c.141 0 .259-.06.352-.182l1.66-1.679a.458.458 0 00.14-.342.625.625 0 00-.14-.388l-9.531-9.269A.485.485 0 0011.977 6a.427.427 0 00-.353.183L2.141 15.45a.458.458 0 00-.141.343c0 .137.047.25.14.342l1.685 1.702a.578.578 0 00.352.16.373.373 0 00.352-.16z" transform="rotate(90 12 12)"/></symbol></defs><use xlink:href="#icon_arrow_right_regular-a"/></svg>