<?xml version="1.0" encoding="UTF-8"?>
<svg width="166px" height="32px" viewBox="0 0 166 32" version="1.1" xmlns="http://www.w3.org/2000/svg" xmlns:xlink="http://www.w3.org/1999/xlink">
    <!-- Generator: Sketch 54.1 (76490) - https://sketchapp.com -->
    <title>eharmony-logo-white-heart-color</title>
    <desc>Created with Sketch.</desc>
    <g id="Page-1" stroke="none" stroke-width="1" fill="none" fill-rule="evenodd">
        <g id="eharmony-logo-white-heart-color" fill-rule="nonzero">
            <g id="_Group_" transform="translate(29.344887, 0.000000)" fill="#FFFFFF">
                <path d="M30.7833622,15.400312 L30.7833622,22.8142114 C30.8088886,23.0638054 30.7207364,23.3116353 30.5433262,23.4890454 C30.365916,23.6664556 30.1180862,23.7546078 29.8684922,23.7290815 L29.2585789,23.7290815 C29.0089849,23.7546078 28.761155,23.6664556 28.5837449,23.4890454 C28.4063347,23.3116353 28.3181825,23.0638054 28.3437088,22.8142114 L28.3437088,16.1109185 C28.3437088,12.2644367 27.4806239,10.1613865 25.0783709,10.1613865 C22.7768111,10.1613865 19.4942114,12.0831889 19.4942114,15.627591 L19.4942114,22.8199653 C19.5197378,23.0695593 19.4315856,23.3173892 19.2541754,23.4947993 C19.0767652,23.6722095 18.8289354,23.7603617 18.5793414,23.7348354 L17.9521664,23.7348354 C17.7025724,23.7603617 17.4547426,23.6722095 17.2773324,23.4947993 C17.0999222,23.3173892 17.01177,23.0695593 17.0372964,22.8199653 L17.0372964,1.60533795 C17.0043647,1.13084217 17.3117169,0.699343868 17.7709185,0.575389948 L18.4412478,0.353864818 C19.1115771,0.140970537 19.4798267,0.44592721 19.4798267,1.087487 L19.4798267,10.4807279 C20.9183016,8.75455806 22.9897054,8.17916811 25.3689428,8.17916811 C29.2125477,8.16766031 30.7833622,11.1568111 30.7833622,15.400312 Z" id="_Compound_Path_"></path>
                <path d="M11.8789255,21.0736568 C12.5809012,20.6766378 12.7420104,20.7687002 13.1591681,21.1944887 L13.1908146,21.2261352 C13.6482496,21.6835702 13.4785095,22.1726516 13.0987522,22.5092548 C12.2759445,23.2716464 9.9542461,24.0340381 7.75913345,24.0340381 C3.44370884,24.0340381 0.129462738,21.1053033 0.129462738,16.1627036 C0.129462738,11.4934142 3.08984402,8.16766031 7.42253033,8.16766031 C12.0256499,8.16766031 14.4106412,11.907695 14.4106412,15.4290815 C14.4106412,16.2231196 14.2898094,16.5568458 13.5245407,16.5568458 L2.57199307,16.5568458 C2.78488735,20.6766378 5.13535529,22.2330676 8.06409012,22.2330676 C9.78162912,22.2330676 10.7799307,21.7152166 11.8789255,21.0736568 Z M2.63240901,14.8795841 L11.9709879,14.8795841 C11.6660312,12.1033276 10.5986828,9.9887695 7.54623917,9.9887695 C4.79875217,9.99740035 3.05819757,11.7379549 2.63240901,14.8795841 Z" id="_Compound_Path_2"></path>
                <path d="M46.5806932,8.47261698 L47.1819757,8.47261698 C47.4315697,8.44709064 47.6793996,8.53524283 47.8568097,8.712653 C48.0342199,8.89006318 48.1223721,9.13789304 48.0968458,9.387487 L48.0968458,22.8142114 C48.0968458,23.3896014 47.9069671,23.700312 47.4495321,23.700312 C47.2366378,23.700312 46.997851,23.6686655 46.6641248,23.0903986 L45.8700867,21.7180936 C44.5239724,23.2266423 42.5864427,24.0724728 40.5649913,24.0340381 C36.2006586,24.0340381 33.1510919,20.6478683 33.1510919,16.0994107 C33.1510919,11.5509532 36.1402426,8.16478336 40.5362218,8.16478336 C42.642149,8.16478336 44.3827036,8.52727903 45.6629463,10.1124783 L45.6629463,9.387487 C45.6372712,9.13733993 45.7257893,8.88895565 45.9038782,8.71142505 C46.081967,8.53389444 46.330628,8.44615667 46.5806932,8.47261698 Z M45.7435009,16.1310572 C45.7435009,11.3697054 42.9960139,10.2102946 40.8009012,10.2102946 C37.719688,10.2102946 35.5821144,12.4687002 35.5821144,16.0994107 C35.5821144,19.7301213 37.7311958,21.9885269 40.8526863,21.9885269 C43.0708146,21.9885269 45.7435009,20.8291161 45.7435009,16.1310572 Z" id="_Compound_Path_3"></path>
                <path d="M61.5667244,9.11417678 C62.1421144,9.60325823 62.0241594,10.0290468 61.5983709,10.4260659 L61.2329983,10.762669 C60.7439168,11.220104 60.3468977,11.0676256 59.9211092,10.7943154 C59.318986,10.4131474 58.6198528,10.2133951 57.9072444,10.2189255 C55.7409012,10.2189255 54.0319931,11.8357712 54.0319931,14.6120277 L53.9715771,22.8199653 C54.0027881,23.070881 53.916487,23.3221622 53.7376955,23.5009537 C53.558904,23.6797452 53.3076228,23.7660463 53.0567071,23.7348354 L52.4467938,23.7348354 C52.1971998,23.7603617 51.9493699,23.6722095 51.7719598,23.4947993 C51.5945496,23.3173892 51.5063974,23.0695593 51.5319237,22.8199653 L51.5319237,9.387487 C51.5063974,9.13789304 51.5945496,8.89006318 51.7719598,8.712653 C51.9493699,8.53524283 52.1971998,8.44709064 52.4467938,8.47261698 L53.0567071,8.47261698 C53.3063011,8.44709064 53.5541309,8.53524283 53.7315411,8.712653 C53.9089513,8.89006318 53.9971035,9.13789304 53.9715771,9.387487 L53.9715771,10.3944194 C55.1626343,9.05088388 56.7478336,8.19642981 58.4567418,8.19642981 C59.4866898,8.19642981 60.8014558,8.50138648 61.5667244,9.11417678 Z" id="_Compound_Path_4"></path>
                <path d="M86.6537262,15.3686655 L86.6537262,22.8142114 C86.6795537,23.0649136 86.5906703,23.3138555 86.4119011,23.4915074 C86.2331319,23.6691593 85.9836375,23.7564803 85.7331023,23.7290815 L85.1289428,23.7290815 C84.8793488,23.7546078 84.631519,23.6664556 84.4541088,23.4890454 C84.2766986,23.3116353 84.1885464,23.0638054 84.2140728,22.8142114 L84.2140728,15.6736222 C84.2140728,12.1033276 83.2071404,10.1498787 81.0091508,10.1498787 C78.8111612,10.1498787 76.6160485,11.9796187 76.5844021,15.6160832 L76.5844021,22.8084575 C76.6121126,23.060101 76.524064,23.3107147 76.3450497,23.4897291 C76.1660353,23.6687434 75.9154216,23.756792 75.6637782,23.7290815 L75.0538648,23.7290815 C74.8042709,23.7546078 74.556441,23.6664556 74.3790308,23.4890454 C74.2016206,23.3116353 74.1134685,23.0638054 74.1389948,22.8142114 L74.1389948,15.6736222 C74.1389948,12.1033276 73.1320624,10.1498787 70.9340728,10.1498787 C68.7360832,10.1498787 66.5409705,11.9796187 66.5093241,15.6160832 L66.5093241,22.8084575 C66.5367229,23.0589928 66.449402,23.3084872 66.2717501,23.4872564 C66.0940982,23.6660256 65.8451562,23.754909 65.5944541,23.7290815 L64.9845407,23.7290815 C64.7349468,23.7546078 64.4871169,23.6664556 64.3097067,23.4890454 C64.1322966,23.3116353 64.0441444,23.0638054 64.0696707,22.8142114 L64.0696707,9.387487 C64.0441444,9.13789304 64.1322966,8.89006318 64.3097067,8.712653 C64.4871169,8.53524283 64.7349468,8.44709064 64.9845407,8.47261698 L65.5944541,8.47261698 C65.844048,8.44709064 66.0918779,8.53524283 66.2692881,8.712653 C66.4466982,8.89006318 66.5348504,9.13789304 66.5093241,9.387487 L66.5093241,10.5382669 C67.7291508,9.04225303 69.0726863,8.09573657 71.0865511,8.09573657 C73.3449567,8.09573657 75.1746967,9.24651646 75.9773657,11.392721 C77.4158406,9.19473137 79.0298094,8.09573657 81.2882149,8.09573657 C84.9764645,8.10436742 86.6537262,11.0963951 86.6537262,15.3686655 Z" id="_Compound_Path_5"></path>
                <path d="M89.3494281,16.1310572 C89.3494281,11.1568111 92.8276603,8.19642981 96.8294974,8.19642981 C100.831334,8.19642981 104.309567,11.1568111 104.309567,16.1310572 C104.309567,21.1053033 100.831334,24.0656846 96.8294974,24.0656846 C92.8276603,24.0656846 89.3494281,21.1053033 89.3494281,16.1310572 Z M101.800867,16.1310572 C101.800867,12.2558059 99.3899827,10.1815251 96.8266205,10.1815251 C94.2632582,10.1815251 91.8207279,12.2270364 91.8207279,16.1627036 C91.8207279,20.0983709 94.2632582,22.0834662 96.794974,22.0834662 C99.3266898,22.0834662 101.79799,20.0983709 101.79799,16.1310572 L101.800867,16.1310572 Z" id="_Compound_Path_6"></path>
                <path d="M120.734073,15.3686655 L120.734073,22.8142114 C120.759599,23.0638054 120.671447,23.3116353 120.494037,23.4890454 C120.316627,23.6664556 120.068797,23.7546078 119.819203,23.7290815 L119.209289,23.7290815 C118.959695,23.7546078 118.711866,23.6664556 118.534455,23.4890454 C118.357045,23.3116353 118.268893,23.0638054 118.294419,22.8142114 L118.294419,15.6736222 C118.294419,12.2874523 117.592444,10.1498787 114.997435,10.1498787 C112.618198,10.1498787 109.565754,11.9508492 109.444922,15.8865165 L109.444922,22.8142114 C109.470448,23.0638054 109.382296,23.3116353 109.204886,23.4890454 C109.027476,23.6664556 108.779646,23.7546078 108.530052,23.7290815 L107.920139,23.7290815 C107.670545,23.7546078 107.422715,23.6664556 107.245305,23.4890454 C107.067894,23.3116353 106.979742,23.0638054 107.005269,22.8142114 L107.005269,9.387487 C106.979742,9.13789304 107.067894,8.89006318 107.245305,8.712653 C107.422715,8.53524283 107.670545,8.44709064 107.920139,8.47261698 L108.530052,8.47261698 C108.779646,8.44709064 109.027476,8.53524283 109.204886,8.712653 C109.382296,8.89006318 109.470448,9.13789304 109.444922,9.387487 L109.444922,10.644714 C111.001352,8.72291161 112.954801,8.11587522 115.241976,8.11587522 C119.145997,8.10436742 120.734073,11.1280416 120.734073,15.3686655 Z" id="_Compound_Path_7"></path>
                <path d="M135.291438,8.03819757 L135.809289,8.03819757 C136.479619,8.03819757 136.787452,8.46686308 136.511265,9.10554593 L127.161179,30.6567764 C126.993341,31.0959251 126.56354,31.3785976 126.09383,31.3587522 L125.575979,31.3587522 C124.90565,31.3587522 124.600693,30.9300867 124.874003,30.2914038 L128.237158,22.9321664 L122.865893,9.12280763 C122.621352,8.48124783 122.926308,8.05545927 123.599515,8.05545927 L124.30149,8.05545927 C124.786664,8.01430433 125.233422,8.32137527 125.368839,8.78908146 L129.433969,20.092617 L134.22409,8.74017331 C134.391928,8.3010246 134.821729,8.01835217 135.291438,8.03819757 L135.291438,8.03819757 Z" id="_Compound_Path_8"></path>
            </g>
            <g id="_Group_2" transform="translate(0.000000, 2.589255)">
                <path d="M12.9462738,2.31594454 C9.98595094,-0.643659162 5.18708199,-0.643659162 2.2267591,2.31594454 L7.58076256,7.67570191 L12.9462738,2.31594454 Z" id="_Path_" fill="#0CAEB1"></path>
                <path d="M2.2210052,13.0383362 L7.58076256,7.67570191 L2.2210052,2.31594454 C0.798854804,3.73767726 -0.000136089326,5.66621133 -0.000136089326,7.67714038 C-0.000136089326,9.68806943 0.798854804,11.6166035 2.2210052,13.0383362 Z" id="_Path_2" fill="#058984"></path>
                <path d="M23.6629116,13.0354593 C26.6225153,10.0751364 26.6225153,5.27626743 23.6629116,2.31594454 L18.3002773,7.67570191 L23.6629116,13.0354593 Z" id="_Path_3" fill="#EF5F54"></path>
                <path d="M12.9462738,2.31594454 L18.3002773,7.67570191 L23.6600347,2.31594454 C20.7003717,-0.639826218 15.9059368,-0.639826218 12.9462738,2.31594454 Z" id="_Path_4" fill="#FD9F82"></path>
                <polygon id="_Path_5" fill="#617DC6" points="18.3002773 7.67570191 12.9405199 2.31594454 12.9405199 2.31594454 7.58076256 7.67570191 12.9405199 13.0383362"></polygon>
                <polygon id="_Path_6" fill="#1A5F78" points="7.58076256 7.67570191 2.2210052 13.0354593 2.2210052 13.0383362 7.58076256 18.3980936 12.9405199 13.0383362"></polygon>
                <polygon id="_Path_7" fill="#AF385C" transform="translate(18.300852, 13.034539) rotate(-45.000000) translate(-18.300852, -13.034539) " points="14.5104702 9.24415741 22.0912328 9.24415741 22.0912328 16.82492 14.5104702 16.82492"></polygon>
                <polygon id="_Path_8" fill="#344560" transform="translate(12.941094, 18.396252) rotate(-45.000000) translate(-12.941094, -18.396252) " points="9.15071287 14.6058707 16.7314754 14.6058707 16.7314754 22.1866333 9.15071287 22.1866333"></polygon>
            </g>
        </g>
    </g>
</svg>