<svg width="120" height="120" viewBox="0 0 120 120" xmlns="http://www.w3.org/2000/svg" xmlns:xlink="http://www.w3.org/1999/xlink"><defs><path id="path-1" d="M0 0h120v120H0z"/></defs><g id="image/user/brand/_female_00_default_vector_invert" stroke="none" stroke-width="1" fill="none" fill-rule="evenodd"><mask id="mask-2" fill="#fff"><use xlink:href="#path-1"/></mask><path d="M42.073 96.252c.44 4.279 2.987 17.383 17.687 17.383 14.7 0 17.587-13.097 18.14-17.383h3.487c3.966 0 7.632 1.538 10.32 4.339h.006c.06.06.114.12.166.18C94.54 103.614 96 107.439 96 111.576V125H24v-13.418c0-4.225 1.527-8.13 4.293-10.991 2.693-2.801 6.36-4.339 10.327-4.339h3.453zM60 7c18.747 0 34 15.297 34 34.096v58.131l-1.333-1.417a17.241 17.241 0 00-1.334-1.07c-.04-.026-.086-.06-.126-.087-.1-.073-.2-.14-.301-.207a7.896 7.896 0 00-.313-.207c-.12-.074-.233-.147-.36-.22a14.5 14.5 0 00-1.146-.636 4.712 4.712 0 00-.414-.2 5.321 5.321 0 00-.44-.201c-.38-.167-.766-.314-1.16-.455-.173-.067-.353-.12-.527-.173-.193-.06-.393-.12-.593-.174-.187-.047-.373-.1-.566-.14a10.719 10.719 0 00-.648-.141c-.22-.04-.439-.08-.659-.114-.127-.02-.247-.04-.373-.053a6.88 6.88 0 00-.534-.06c-.047-.007-.093-.014-.133-.014a6.472 6.472 0 00-.494-.04 4.54 4.54 0 00-.42-.02c-.247-.013-.493-.02-.74-.02H69v-6.9a32.691 32.691 0 002.827-2.406l.68-.635c3.34-3.156 7.133-6.733 9.806-10.503 1.554-2.193 2.5-4.807 2.894-7.983.333-2.66.26-5.389.193-8.03-.033-1.09-.06-2.165-.06-3.228v-6.539L75.906 32.11a1.474 1.474 0 00-1.08-.768c-.606-.087-1.193.2-1.507.768-.372.723-2.559 4.527-8.773 8.913-7.54 5.315-16.34 9.166-28.78 11.459l-1.046.194-.073 1.738c0 .902-.02 1.825-.047 2.761-.073 3.162-.147 6.425.493 9.594.88 4.346 3.3 7.42 5.914 10.442 3 3.47 6.24 7.054 9.993 9.675v6.692H38.62c-.247 0-.493.007-.74.02-.133 0-.267.007-.394.02-.14.007-.28.013-.413.034a4.89 4.89 0 00-.44.04.499.499 0 00-.1.013c-.2.02-.406.047-.606.08-.22.034-.441.074-.66.114l-.647.14a17.982 17.982 0 00-1.22.335c-.453.14-.9.3-1.34.488-.12.046-.24.1-.36.153-.113.047-.22.094-.333.154-.114.047-.227.1-.34.16a13.78 13.78 0 00-1.534.863 4.262 4.262 0 00-.426.28 14.38 14.38 0 00-1.733 1.344L26 99.235V41.096C26 22.296 41.253 7 60 7z" id="woman_white" fill="#888"/></g></svg>