<svg width="120" height="120" viewBox="0 0 120 120" xmlns="http://www.w3.org/2000/svg" xmlns:xlink="http://www.w3.org/1999/xlink"><defs><path id="path-1" d="M0 0h120v120H0z"/></defs><g id="image/user/brand/_male_00_default_vector_invert" stroke="none" stroke-width="1" fill="none" fill-rule="evenodd"><g id="default_man"><mask id="mask-2" fill="#fff"><use xlink:href="#path-1"/></mask><path d="M59.857 114.716c-12.725 0-17.728-14.43-17.728-14.43h8.731v-7.04c.312.076.63.15.957.217.312.068.63.128.956.19a.518.518 0 00.1.012 30.85 30.85 0 003.24.412c.273.027.55.047.829.06.339.028.67.041 1.01.055.46.02.923.026 1.383.026.17 0 .346 0 .515-.006.292 0 .59-.007.882-.02.467-.014.936-.04 1.397-.075 2.115-.134 4.407-.425 6.358-.883v7.053h9.33s-5.234 14.43-17.96 14.43M34.264 63.41l-.204-1.935-1.749.87c-.25.121-.5.182-.773.182-1.654 0-3.05-2.313-3.05-5.057 0-2.745 1.396-5.057 3.05-5.057.252 0 .488.054.726.155l1.702.769.217-1.996c.013-.141.034-.283.047-.425 5.804-9.021 16.007-9.09 25.01-9.143 2.102-.013 4.081-.027 5.946-.148 7.865-.527 12.434-4.282 14.38-6.358a37.677 37.677 0 011.736 3.552l.04.102a42.573 42.573 0 012.515 8.294l.021.087c.27 1.369.481 2.778.624 4.174l.19 1.867 1.714-.775c.238-.1.475-.155.726-.155 1.654 0 3.05 2.312 3.05 5.057 0 2.744-1.396 5.057-3.05 5.057-.272 0-.522-.06-.773-.182l-1.749-.87-.203 1.935c-1.594 15.11-6.576 23.62-15.689 26.762-2.142.734-5.09 1.213-8.094 1.321-.435.02-.868.027-1.29.027-3.429 0-6.935-.505-9.381-1.348C40.84 87.03 35.858 78.52 34.263 63.41m51.554 34.18H71.2V92.1c8.787-3.77 13.947-12.596 15.73-26.883.067.007.135.007.203.007 3.233 0 5.762-3.405 5.762-7.754 0-4.35-2.529-7.754-5.762-7.754h-.109c-.04-.317-.088-.627-.136-.944v-.013c1.553-5.334 4.204-18.947-4.84-30.059C63.45.205 40.21 13.435 36.487 15.667c-.12.074-.046.262.103.243 6.8-.951 9.315.181 9.993.613.095.06.068.202-.035.236-25.151 8.097-17.708 27.335-14.846 32.823l-.042.027-.013.108h-.109c-3.233 0-5.762 3.405-5.762 7.754 0 4.35 2.53 7.754 5.762 7.754.068 0 .137 0 .204-.007 1.824 14.652 7.206 23.559 16.406 27.173v5.199H34.19c-7.838 0-14.19 6.318-14.19 14.11V134h80v-22.305c0-7.787-6.353-14.105-14.184-14.105" id="man_white" fill="#888" mask="url(#mask-2)"/></g></g></svg>